<?xml version="1.0" encoding="iso-8859-1"?>
<!-- Generator: Adobe Illustrator 21.0.0, SVG Export Plug-In . SVG Version: 6.00 Build 0)  -->
<svg version="1.1" id="Capa_1" xmlns="http://www.w3.org/2000/svg" xmlns:xlink="http://www.w3.org/1999/xlink" x="0px" y="0px"
	 viewBox="0 0 512 512" style="enable-background:new 0 0 512 512;" xml:space="preserve">
<g>
	<g>
		<g>
			<path d="M401.067,247.471h-51.2c-9.426,0-17.067,7.641-17.067,17.067v51.2c0,9.426,7.641,17.067,17.067,17.067h93.867
				c3.102,0,5.96-1.683,7.464-4.397c1.504-2.713,1.417-6.029-0.227-8.659l-42.667-68.267
				C406.744,248.986,404.009,247.471,401.067,247.471z M349.867,315.737v-51.2h46.473l32,51.2H349.867z"/>
			<path d="M204.8,332.804h68.267c9.426,0,17.067-7.641,17.067-17.067v-51.2c0-9.426-7.641-17.067-17.067-17.067H204.8
				c-9.426,0-17.067,7.641-17.067,17.067v51.2C187.733,325.163,195.374,332.804,204.8,332.804z M204.8,264.537h68.267v51.2H204.8
				V264.537z"/>
			<path d="M136.533,247.471H68.267c-9.426,0-17.067,7.641-17.067,17.067v51.2c0,9.426,7.641,17.067,17.067,17.067h68.267
				c9.426,0,17.067-7.641,17.067-17.067v-51.2C153.6,255.112,145.959,247.471,136.533,247.471z M136.533,315.737H68.267v-51.2
				h68.267V315.737z"/>
			<path d="M110.933,358.404H93.867c-4.713,0-8.533,3.82-8.533,8.533s3.821,8.533,8.533,8.533h17.067
				c4.713,0,8.533-3.82,8.533-8.533S115.646,358.404,110.933,358.404z"/>
			<path d="M230.4,358.404c-4.713,0-8.533,3.82-8.533,8.533s3.82,8.533,8.533,8.533h17.067c4.713,0,8.533-3.82,8.533-8.533
				s-3.82-8.533-8.533-8.533H230.4z"/>
			<path d="M384,358.404h-17.067c-4.713,0-8.533,3.82-8.533,8.533s3.82,8.533,8.533,8.533H384c4.713,0,8.533-3.82,8.533-8.533
				S388.713,358.404,384,358.404z"/>
			<path d="M466.133,104.264l-39.467-31.556V42.671c0-4.713-3.82-8.533-8.533-8.533s-8.533,3.82-8.533,8.533v30.037l-39.467,31.573
				c-3.681,2.945-4.277,8.317-1.331,11.998c2.945,3.681,8.317,4.277,11.998,1.331l28.8-23.057v38.451l-6.033,6.033
				c-2.218,2.142-3.108,5.315-2.327,8.299s3.111,5.313,6.094,6.094c2.984,0.781,6.156-0.109,8.299-2.327l2.5-2.5l2.5,2.5
				c3.348,3.234,8.671,3.188,11.962-0.104c3.292-3.292,3.338-8.614,0.104-11.962l-6.033-6.033V94.553l28.8,23.04
				c3.681,2.945,9.052,2.349,11.998-1.331C470.41,112.581,469.814,107.21,466.133,104.264z"/>
			<path d="M486.4,187.737c14.138,0,25.6-11.461,25.6-25.6V25.604c0-14.138-11.461-25.6-25.6-25.6H349.867
				c-14.138,0-25.6,11.461-25.6,25.6v136.533c0,14.138,11.462,25.6,25.6,25.6H409.6v25.719c-0.316,0-0.606-0.119-0.922-0.119H25.6
				c-14.138,0-25.6,11.461-25.6,25.6v204.8c0,14.138,11.461,25.6,25.6,25.6h26.368c4.141,24.625,25.461,42.659,50.432,42.659
				c24.971,0,46.29-18.034,50.432-42.659h197.803c4.141,24.625,25.461,42.659,50.432,42.659c24.971,0,46.291-18.034,50.432-42.659
				H486.4c14.138,0,25.6-11.462,25.6-25.6v-80.435c0-4.798-1.348-9.499-3.891-13.568l-77.722-124.365
				c-1.063-1.653-2.311-3.179-3.721-4.548v-33.084H486.4z M102.4,494.937c-18.851,0-34.133-15.282-34.133-34.133
				c0-18.851,15.282-34.133,34.133-34.133s34.133,15.282,34.133,34.133C136.533,479.655,121.251,494.937,102.4,494.937z
				 M401.067,494.937c-18.851,0-34.133-15.282-34.133-34.133c0-18.851,15.282-34.133,34.133-34.133
				c18.851,0,34.133,15.282,34.133,34.133C435.2,479.655,419.918,494.937,401.067,494.937z M493.636,358.78
				c0.848,1.356,1.297,2.923,1.297,4.523v54.835h-25.6c-4.713,0-8.533,3.82-8.533,8.533s3.82,8.533,8.533,8.533h25.6v8.533
				c0,4.713-3.82,8.533-8.533,8.533h-34.901c-4.141-24.625-25.461-42.658-50.432-42.658c-24.971,0-46.291,18.033-50.432,42.658
				H152.832c-4.142-24.625-25.461-42.658-50.432-42.658c-24.971,0-46.291,18.033-50.432,42.658H25.6
				c-4.713,0-8.533-3.82-8.533-8.533v-8.533h17.067c4.713,0,8.533-3.82,8.533-8.533s-3.82-8.533-8.533-8.533H17.067v-179.2
				c0-4.713,3.82-8.533,8.533-8.533h383.078c2.943-0.01,5.679,1.508,7.228,4.011L493.636,358.78z M349.867,170.671
				c-4.713,0-8.533-3.82-8.533-8.533V25.604c0-4.713,3.82-8.533,8.533-8.533H486.4c4.713,0,8.533,3.82,8.533,8.533v136.533
				c0,4.713-3.82,8.533-8.533,8.533H349.867z"/>
			<path d="M332.8,418.137H170.667c-4.713,0-8.533,3.82-8.533,8.533s3.82,8.533,8.533,8.533H332.8c4.713,0,8.533-3.82,8.533-8.533
				S337.513,418.137,332.8,418.137z"/>
		</g>
	</g>
</g>
<g>
</g>
<g>
</g>
<g>
</g>
<g>
</g>
<g>
</g>
<g>
</g>
<g>
</g>
<g>
</g>
<g>
</g>
<g>
</g>
<g>
</g>
<g>
</g>
<g>
</g>
<g>
</g>
<g>
</g>
</svg>
